<?xml version="1.0" encoding="UTF-8"?>
<!DOCTYPE svg PUBLIC "-//W3C//DTD SVG 1.1//EN" "http://www.w3.org/Graphics/SVG/1.1/DTD/svg11.dtd">
<!-- Creator: CorelDRAW 2019 (64-Bit) -->
<svg xmlns="http://www.w3.org/2000/svg" xml:space="preserve" width="279.4mm" height="279.4mm" version="1.1" style="shape-rendering:geometricPrecision; text-rendering:geometricPrecision; image-rendering:optimizeQuality; fill-rule:evenodd; clip-rule:evenodd"
viewBox="0 0 27940 27940"
 xmlns:xlink="http://www.w3.org/1999/xlink">
 <defs>
  <style type="text/css">
   <![CDATA[
    .fil7 {fill:#3E3A71}
    .fil2 {fill:#3F3F75}
    .fil6 {fill:#413B72}
    .fil4 {fill:#413D6E}
    .fil5 {fill:#423E72}
    .fil10 {fill:#434075}
    .fil9 {fill:#454172}
    .fil8 {fill:#494379}
    .fil3 {fill:#A68BC4}
    .fil0 {fill:#3F3F75;fill-rule:nonzero}
    .fil1 {fill:#9578BA;fill-rule:nonzero}
   ]]>
  </style>
 </defs>
 <g id="Capa_x0020_1">
  <metadata id="CorelCorpID_0Corel-Layer"/>
  <g id="_1566887315936">
   <path class="fil0" d="M9928.2 13459.53l0 -1183.23 354.96 0c133.76,0 247.79,24.01 342.11,72.03 94.31,48.01 166.62,116.32 216.92,204.92 50.31,88.6 75.46,194.06 75.46,316.38 0,123.47 -25.15,229.22 -75.46,317.24 -50.3,88.03 -122.61,155.48 -216.92,202.35 -94.32,46.87 -208.35,70.31 -342.11,70.31l-354.96 0zm120.03 -99.46l234.93 0c170.34,0 298.38,-43.16 384.12,-129.47 85.74,-86.31 128.61,-206.63 128.61,-360.97 0,-150.9 -42.87,-270.94 -128.61,-360.11 -85.74,-89.17 -213.78,-133.76 -384.12,-133.76l-234.93 0 0 984.31zm1090.63 99.46l0 -936.29 120.03 0 0 936.29 -120.03 0zm65.16 -485.29l54.87 -241.79c20.58,-70.88 58.88,-125.47 114.9,-163.77 56.01,-38.3 124.61,-57.45 205.77,-57.45l0 126.9c-8,-2.29 -16.29,-3.71 -24.86,-4.29 -8.57,-0.57 -16.86,-0.85 -24.87,-0.85 -51.44,0 -97.45,14.86 -138.04,44.58 -40.58,29.73 -72.88,70.31 -96.89,121.75 -24,51.45 -36.01,109.75 -36.01,174.92l-54.87 0zm920.86 497.29c-81.17,0 -155.19,-20.29 -222.07,-60.87 -66.88,-40.59 -120.04,-97.18 -159.48,-169.77 -39.44,-72.59 -59.16,-156.33 -59.16,-251.22 0,-94.89 19.72,-178.34 59.16,-250.36 39.44,-72.03 92.6,-128.04 159.48,-168.06 66.88,-40.01 140.9,-60.02 222.07,-60.02 88.03,0 165.77,20.01 233.22,60.02 67.45,40.02 115.46,93.75 144.04,161.2l0 -209.21 120.04 0 0 936.29 -44.59 0c-24,0 -42.58,-6.57 -55.73,-19.72 -13.15,-13.15 -19.72,-31.72 -19.72,-55.73l0 -137.19c-29.72,67.45 -78.88,121.75 -147.47,162.91 -68.6,41.16 -145.19,61.73 -229.79,61.73zm29.15 -104.6c65.17,0 124.04,-15.43 176.63,-46.3 52.59,-30.87 94.31,-74.6 125.18,-131.18 30.87,-56.59 46.3,-123.19 46.3,-199.78 0,-76.6 -15.43,-142.9 -46.3,-198.92 -30.87,-56.02 -72.59,-99.17 -125.18,-129.47 -52.59,-30.29 -111.46,-45.44 -176.63,-45.44 -65.16,0 -124.04,15.15 -176.62,45.44 -52.59,30.3 -94.32,73.45 -125.19,129.47 -30.86,56.02 -46.3,122.32 -46.3,198.92 0,76.59 15.44,143.19 46.3,199.78 30.87,56.58 72.6,100.31 125.19,131.18 52.58,30.87 111.46,46.3 176.62,46.3zm775.1 104.6c-28.58,0 -52.3,-9.14 -71.17,-27.43 -18.86,-18.29 -28.29,-40.02 -28.29,-65.17 0,-25.15 9.43,-46.3 28.29,-63.44 18.87,-17.15 42.59,-25.73 71.17,-25.73 27.43,0 50.58,8.58 69.45,25.73 18.86,17.14 28.29,38.29 28.29,63.44 0,25.15 -9.43,46.88 -28.29,65.17 -18.87,18.29 -42.02,27.43 -69.45,27.43zm773.38 -12l0 -1183.23 402.98 0c84.6,0 154.33,13.15 209.21,39.45 54.87,26.29 95.74,61.73 122.61,106.31 26.86,44.59 40.29,94.89 40.29,150.91 0,61.73 -13.43,112.89 -40.29,153.47 -26.87,40.59 -61.74,71.46 -104.61,92.6 -42.87,21.15 -87.74,34.59 -134.61,40.3l22.29 -17.15c51.45,1.15 98.6,15.15 141.47,42.02 42.87,26.86 77.46,62.59 103.75,107.17 26.29,44.59 39.44,94.89 39.44,150.91 0,59.45 -14.86,113.18 -44.58,161.19 -29.73,48.02 -73.17,86.03 -130.33,114.04 -57.16,28.01 -128.04,42.01 -212.64,42.01l-414.98 0zm120.03 -101.17l286.38 0c86.88,0 154.62,-20.01 203.2,-60.02 48.59,-40.02 72.88,-96.03 72.88,-168.06 0,-72.02 -25.43,-128.89 -76.31,-170.62 -50.87,-41.73 -119.18,-62.59 -204.92,-62.59l-281.23 0 0 461.29zm0 -560.75l279.52 0c81.17,0 143.76,-18.86 187.77,-56.59 44.02,-37.73 66.02,-89.74 66.02,-156.05 0,-64.02 -21.43,-114.61 -64.3,-151.76 -42.87,-37.15 -107.75,-55.73 -194.64,-55.73l-274.37 0 0 420.13zm903.72 661.92l0 -936.29 120.03 0 0 936.29 -120.03 0zm65.16 -485.29l54.87 -241.79c20.58,-70.88 58.88,-125.47 114.9,-163.77 56.01,-38.3 124.61,-57.45 205.77,-57.45l0 126.9c-8,-2.29 -16.29,-3.71 -24.86,-4.29 -8.57,-0.57 -16.86,-0.85 -24.87,-0.85 -51.44,0 -97.45,14.86 -138.04,44.58 -40.58,29.73 -72.88,70.31 -96.89,121.75 -24,51.45 -36.01,109.75 -36.01,174.92l-54.87 0zm564.17 485.29l0 -936.29 120.04 0 0 936.29 -120.04 0zm60.02 -1112.92c-25.15,0 -47.44,-8.86 -66.88,-26.58 -19.43,-17.72 -29.15,-39.72 -29.15,-66.02 0,-26.29 8.86,-47.73 26.58,-64.3 17.72,-16.58 40.87,-24.87 69.45,-24.87 26.29,0 48.87,8.29 67.73,24.87 18.87,16.57 28.3,38.01 28.3,64.3 0,26.3 -9.43,48.3 -28.3,66.02 -18.86,17.72 -41.44,26.58 -67.73,26.58zm778.52 1567.35c-80.02,0 -150.33,-13.72 -210.92,-41.16 -60.59,-27.44 -112.03,-64.3 -154.33,-110.6 -42.3,-46.3 -76.03,-96.89 -101.18,-151.77l106.32 -53.16c36.59,75.46 84.89,136.33 144.9,182.63 60.02,46.3 131.76,69.45 215.21,69.45 64.02,0 120.33,-13.72 168.91,-41.15 48.59,-27.44 86.89,-66.02 114.9,-115.75 28.01,-49.73 42.01,-107.75 42.01,-174.06l0 -231.5c-28.58,67.45 -77.45,121.75 -146.62,162.91 -69.16,41.16 -146.04,61.73 -230.64,61.73 -85.74,0 -161.76,-20.29 -228.07,-60.87 -66.31,-40.59 -118.32,-97.18 -156.05,-169.77 -37.73,-72.59 -56.59,-156.33 -56.59,-251.22 0,-94.89 18.86,-178.34 56.59,-250.36 37.73,-72.03 89.74,-128.04 156.05,-168.06 66.31,-40.01 142.33,-60.02 228.07,-60.02 88.03,0 165.77,20.01 233.22,60.02 67.45,40.02 115.46,93.75 144.04,161.2l0 -209.21 120.04 0 0 955.15c0,61.74 -10.58,119.18 -31.73,172.34 -21.15,53.16 -51.44,99.46 -90.88,138.9 -39.44,39.44 -86.6,70.02 -141.47,91.75 -54.88,21.72 -115.47,32.58 -181.78,32.58zm-22.29 -547.03c65.17,0 124.04,-15.43 176.63,-46.3 52.59,-30.87 94.31,-74.6 125.18,-131.18 30.87,-56.59 46.3,-123.19 46.3,-199.78 0,-76.6 -15.43,-142.9 -46.3,-198.92 -30.87,-56.02 -72.59,-99.17 -125.18,-129.47 -52.59,-30.29 -111.46,-45.44 -176.63,-45.44 -65.16,0 -124.04,15.15 -176.62,45.44 -52.59,30.3 -94.32,73.45 -125.19,129.47 -30.86,56.02 -46.3,122.32 -46.3,198.92 0,76.59 15.44,143.19 46.3,199.78 30.87,56.58 72.6,100.31 125.19,131.18 52.58,30.87 111.46,46.3 176.62,46.3zm751.09 92.6l0 -936.29 120.04 0 0 936.29 -120.04 0zm60.02 -1112.92c-25.15,0 -47.44,-8.86 -66.88,-26.58 -19.43,-17.72 -29.15,-39.72 -29.15,-66.02 0,-26.29 8.86,-47.73 26.58,-64.3 17.72,-16.58 40.87,-24.87 69.45,-24.87 26.29,0 48.87,8.29 67.73,24.87 18.87,16.57 28.3,38.01 28.3,64.3 0,26.3 -9.43,48.3 -28.3,66.02 -18.86,17.72 -41.44,26.58 -67.73,26.58zm625.91 1124.92c-58.31,0 -107.47,-19.43 -147.48,-58.3 -40.01,-38.87 -60.02,-87.46 -60.02,-145.76l0 -643.06 -173.19 0 0 -101.17 493.86 0 0 101.17 -200.63 0 0 643.06c0,27.44 8.29,50.3 24.86,68.59 16.58,18.29 38.59,27.44 66.03,27.44 16,0 31.43,-3.43 46.3,-10.29 14.86,-6.86 28.58,-14.29 41.15,-22.29l54.88 94.31c-17.15,13.72 -38.87,24.87 -65.17,33.44 -26.29,8.58 -53.16,12.86 -80.59,12.86zm-284.66 -884.84l0 -63.45c25.15,0 44.3,-6.58 57.44,-19.72 13.15,-13.15 19.72,-32.3 19.72,-57.45l0 -157.76 121.75 0 0 135.47c0,16 -2.57,30.87 -7.71,44.58 -5.15,13.72 -12.86,25.44 -23.15,35.16 -10.29,9.72 -24.01,16.29 -41.16,19.72l-126.89 63.45zm886.56 884.84c-58.31,0 -107.47,-19.43 -147.48,-58.3 -40.01,-38.87 -60.02,-87.46 -60.02,-145.76l0 -643.06 -173.19 0 0 -101.17 493.86 0 0 101.17 -200.63 0 0 643.06c0,27.44 8.29,50.3 24.86,68.59 16.58,18.29 38.59,27.44 66.03,27.44 16,0 31.43,-3.43 46.3,-10.29 14.86,-6.86 28.58,-14.29 41.15,-22.29l54.88 94.31c-17.15,13.72 -38.87,24.87 -65.17,33.44 -26.29,8.58 -53.16,12.86 -80.59,12.86zm-284.66 -884.84l0 -63.45c25.15,0 44.3,-6.58 57.44,-19.72 13.15,-13.15 19.72,-32.3 19.72,-57.45l0 -157.76 121.75 0 0 135.47c0,16 -2.57,30.87 -7.71,44.58 -5.15,13.72 -12.86,25.44 -23.15,35.16 -10.29,9.72 -24.01,16.29 -41.16,19.72l-126.89 63.45zm1025.45 884.84c-69.73,0 -134.61,-10.57 -194.63,-31.72 -60.02,-21.15 -112.6,-52.02 -157.76,-92.6 -45.16,-40.58 -80.31,-90.03 -105.46,-148.33 -25.15,-58.31 -37.73,-125.18 -37.73,-200.64 0,-68.59 13.43,-132.32 40.3,-191.2 26.87,-58.87 63.73,-110.6 110.61,-155.19 46.87,-44.59 100.03,-79.17 159.47,-103.75 59.45,-24.58 121.18,-36.87 185.2,-36.87 56.02,0 107.47,7.15 154.34,21.44 46.87,14.29 87.17,34.58 120.89,60.88 33.73,26.29 60.02,56.3 78.88,90.02 18.87,33.73 28.3,70.6 28.3,110.61 0,59.45 -15.72,108.61 -47.16,147.47 -31.44,38.87 -73.45,69.17 -126.04,90.89 -52.59,21.72 -110.32,36.87 -173.19,45.44 -62.88,8.58 -126.33,12.86 -190.35,12.86 -26.29,0 -52.3,-0.57 -78.02,-1.71 -25.73,-1.14 -50.31,-3.14 -73.74,-6 -23.44,-2.86 -45.44,-5.43 -66.02,-7.72 5.71,51.44 24.29,99.46 55.73,144.05 31.44,44.58 74.31,80.31 128.61,107.17 54.3,26.87 116.9,40.3 187.77,40.3 52.59,0 101.18,-9.43 145.76,-28.29 44.59,-18.87 83.74,-41.45 117.47,-67.74 33.72,-26.29 60.3,-50.3 79.74,-72.02l87.45 68.59c-22.86,30.87 -55.16,62.02 -96.88,93.46 -41.73,31.44 -90.6,57.73 -146.62,78.88 -56.02,21.15 -118.32,31.72 -186.92,31.72zm-166.33 -485.29c49.15,0 99.17,-3.14 150.04,-9.43 50.88,-6.29 97.46,-16.29 139.76,-30.01 42.3,-13.72 76.6,-32.3 102.89,-55.73 26.29,-23.44 39.44,-52.3 39.44,-86.6 0,-36.58 -11.72,-69.17 -35.15,-97.75 -23.44,-28.58 -54.88,-50.87 -94.32,-66.87 -39.44,-16.01 -82.59,-24.01 -129.47,-24.01 -70.88,0 -134.9,17.43 -192.06,52.3 -57.16,34.87 -102.89,79.45 -137.18,133.76 -34.3,54.3 -53.16,111.17 -56.59,170.62 24.01,4.57 54.59,8 91.74,10.29 37.16,2.29 77.45,3.43 120.9,3.43zm-8857.02 2177.82l0 -1183.23 360.11 0c92.6,0 169.19,15.15 229.78,45.45 60.59,30.29 105.47,71.16 134.62,122.61 29.15,51.44 43.72,110.32 43.72,176.62 0,83.46 -25.72,154.34 -77.16,212.64 -51.45,58.3 -119.47,95.46 -204.07,111.46 61.74,19.44 117.18,50.31 166.34,92.6 49.16,42.3 90.32,97.75 123.47,166.34 33.15,68.59 55.44,153.76 66.88,255.51l-126.9 0c-9.15,-109.75 -34.01,-198.06 -74.59,-264.94 -40.59,-66.88 -95.75,-117.46 -165.48,-151.76 -46.88,-22.87 -100.04,-39.16 -159.48,-48.87 -59.45,-9.72 -125.18,-14.58 -197.21,-14.58l0 480.15 -120.03 0zm120.03 -583.04l241.79 0c98.32,0 170.06,-24.29 215.21,-72.88 45.16,-48.59 67.74,-109.46 67.74,-182.63 0,-75.45 -22.01,-134.9 -66.02,-178.34 -44.02,-43.44 -116.9,-65.16 -218.64,-65.16l-240.08 0 0 499.01zm1328.98 595.04c-69.73,0 -134.61,-10.57 -194.63,-31.72 -60.02,-21.15 -112.6,-52.02 -157.76,-92.6 -45.16,-40.58 -80.31,-90.03 -105.46,-148.33 -25.15,-58.31 -37.73,-125.18 -37.73,-200.64 0,-68.59 13.43,-132.32 40.3,-191.2 26.87,-58.87 63.73,-110.6 110.61,-155.19 46.87,-44.59 100.03,-79.17 159.47,-103.75 59.45,-24.58 121.18,-36.87 185.2,-36.87 56.02,0 107.47,7.15 154.34,21.44 46.87,14.29 87.17,34.58 120.89,60.88 33.73,26.29 60.02,56.3 78.88,90.02 18.87,33.73 28.3,70.6 28.3,110.61 0,59.45 -15.72,108.61 -47.16,147.47 -31.44,38.87 -73.45,69.17 -126.04,90.89 -52.59,21.72 -110.32,36.87 -173.19,45.44 -62.88,8.58 -126.33,12.86 -190.35,12.86 -26.29,0 -52.3,-0.57 -78.02,-1.71 -25.73,-1.14 -50.31,-3.14 -73.74,-6 -23.44,-2.86 -45.44,-5.43 -66.02,-7.72 5.71,51.44 24.29,99.46 55.73,144.05 31.44,44.58 74.31,80.31 128.61,107.17 54.3,26.87 116.9,40.3 187.77,40.3 52.59,0 101.18,-9.43 145.76,-28.29 44.59,-18.87 83.74,-41.45 117.47,-67.74 33.72,-26.29 60.3,-50.3 79.74,-72.02l87.45 68.59c-22.86,30.87 -55.16,62.02 -96.88,93.46 -41.73,31.44 -90.6,57.73 -146.62,78.88 -56.02,21.15 -118.32,31.72 -186.92,31.72zm-166.33 -485.29c49.15,0 99.17,-3.14 150.04,-9.43 50.88,-6.29 97.46,-16.29 139.76,-30.01 42.3,-13.72 76.6,-32.3 102.89,-55.73 26.29,-23.44 39.44,-52.3 39.44,-86.6 0,-36.58 -11.72,-69.17 -35.15,-97.75 -23.44,-28.58 -54.88,-50.87 -94.32,-66.87 -39.44,-16.01 -82.59,-24.01 -129.47,-24.01 -70.88,0 -134.9,17.43 -192.06,52.3 -57.16,34.87 -102.89,79.45 -137.18,133.76 -34.3,54.3 -53.16,111.17 -56.59,170.62 24.01,4.57 54.59,8 91.74,10.29 37.16,2.29 77.45,3.43 120.9,3.43zm1466.17 490.44l0 -953.44 120.04 0 0 953.44c0,61.73 -9.15,119.18 -27.44,172.34 -18.29,53.16 -45.44,99.46 -81.45,138.9 -36.01,39.44 -79.74,70.31 -131.19,92.6 -51.44,22.29 -110.32,33.44 -176.62,33.44 -66.31,0 -128.61,-11.43 -186.92,-34.3 -58.3,-22.86 -108.89,-57.16 -151.76,-102.89 -42.87,-45.73 -76.31,-102.32 -100.32,-169.77l111.47 -44.58c29.72,82.31 75.45,143.47 137.18,183.48 61.74,40.02 125.18,60.02 190.35,60.02 94.88,0 168.05,-29.72 219.49,-89.17 51.45,-59.44 77.17,-139.47 77.17,-240.07zm48.02 -488.73c0,86.89 -10.87,160.05 -32.59,219.5 -21.72,59.45 -50.58,107.18 -86.59,143.19 -36.02,36.01 -76.31,62.02 -120.9,78.02 -44.58,16.01 -90.31,24.01 -137.18,24.01 -76.6,0 -142.62,-17.15 -198.07,-51.44 -55.44,-34.3 -98.03,-81.17 -127.75,-140.62 -29.72,-59.45 -44.59,-127.47 -44.59,-204.06l0 -533.31 120.04 0 0 499.01c0,104.03 26.87,184.34 80.6,240.93 53.73,56.59 122.32,84.89 205.78,84.89 54.87,0 104.6,-15.15 149.19,-45.45 44.58,-30.29 79.73,-72.3 105.46,-126.04 25.72,-53.73 38.58,-116.6 38.58,-188.63l48.02 0zm769.95 483.58c-69.73,0 -134.61,-10.57 -194.63,-31.72 -60.02,-21.15 -112.6,-52.02 -157.76,-92.6 -45.16,-40.58 -80.31,-90.03 -105.46,-148.33 -25.15,-58.31 -37.73,-125.18 -37.73,-200.64 0,-68.59 13.43,-132.32 40.3,-191.2 26.87,-58.87 63.73,-110.6 110.61,-155.19 46.87,-44.59 100.03,-79.17 159.47,-103.75 59.45,-24.58 121.18,-36.87 185.2,-36.87 56.02,0 107.47,7.15 154.34,21.44 46.87,14.29 87.17,34.58 120.89,60.88 33.73,26.29 60.02,56.3 78.88,90.02 18.87,33.73 28.3,70.6 28.3,110.61 0,59.45 -15.72,108.61 -47.16,147.47 -31.44,38.87 -73.45,69.17 -126.04,90.89 -52.59,21.72 -110.32,36.87 -173.19,45.44 -62.88,8.58 -126.33,12.86 -190.35,12.86 -26.29,0 -52.3,-0.57 -78.02,-1.71 -25.73,-1.14 -50.31,-3.14 -73.74,-6 -23.44,-2.86 -45.44,-5.43 -66.02,-7.72 5.71,51.44 24.29,99.46 55.73,144.05 31.44,44.58 74.31,80.31 128.61,107.17 54.3,26.87 116.9,40.3 187.77,40.3 52.59,0 101.18,-9.43 145.76,-28.29 44.59,-18.87 83.74,-41.45 117.47,-67.74 33.72,-26.29 60.3,-50.3 79.74,-72.02l87.45 68.59c-22.86,30.87 -55.16,62.02 -96.88,93.46 -41.73,31.44 -90.6,57.73 -146.62,78.88 -56.02,21.15 -118.32,31.72 -186.92,31.72zm-166.33 -485.29c49.15,0 99.17,-3.14 150.04,-9.43 50.88,-6.29 97.46,-16.29 139.76,-30.01 42.3,-13.72 76.6,-32.3 102.89,-55.73 26.29,-23.44 39.44,-52.3 39.44,-86.6 0,-36.58 -11.72,-69.17 -35.15,-97.75 -23.44,-28.58 -54.88,-50.87 -94.32,-66.87 -39.44,-16.01 -82.59,-24.01 -129.47,-24.01 -70.88,0 -134.9,17.43 -192.06,52.3 -57.16,34.87 -102.89,79.45 -137.18,133.76 -34.3,54.3 -53.16,111.17 -56.59,170.62 24.01,4.57 54.59,8 91.74,10.29 37.16,2.29 77.45,3.43 120.9,3.43zm1116.35 485.29c-70.88,0 -132.33,-11.43 -184.35,-34.29 -52.01,-22.87 -93.74,-54.02 -125.18,-93.46 -31.44,-39.44 -52.3,-83.74 -62.59,-132.9l109.75 -24.01c11.43,51.45 38.58,94.6 81.45,129.47 42.87,34.87 102.61,52.3 179.2,52.3 67.45,0 119.18,-15.14 155.19,-45.44 36.01,-30.29 54.02,-67.73 54.02,-112.32 0,-38.87 -13.43,-69.16 -40.3,-90.88 -26.86,-21.73 -61.73,-39.16 -104.6,-52.31 -42.87,-13.14 -88.32,-26 -136.33,-38.58 -48.01,-12.58 -93.46,-28.58 -136.33,-48.01 -42.87,-19.44 -77.74,-46.3 -104.6,-80.6 -26.87,-34.3 -40.3,-80.03 -40.3,-137.19 0,-46.87 13.72,-89.17 41.16,-126.89 27.43,-37.73 66.02,-68.02 115.75,-90.89 49.73,-22.86 107.17,-34.3 172.33,-34.3 67.45,0 123.47,10.87 168.06,32.59 44.58,21.72 80.02,50.3 106.32,85.74 26.29,35.44 44.01,74.88 53.16,118.32l-104.61 30.87c-10.29,-42.3 -32.87,-80.31 -67.73,-114.04 -34.87,-33.72 -87.75,-50.59 -158.62,-50.59 -62.88,0 -112.61,14.29 -149.19,42.87 -36.59,28.58 -54.88,63.45 -54.88,104.61 0,42.3 13.43,75.45 40.3,99.46 26.87,24.01 61.45,42.87 103.75,56.59 42.3,13.72 87.45,26.86 135.47,39.44 48.01,12.57 93.17,28.01 135.47,46.3 42.3,18.29 76.88,43.73 103.74,76.31 26.87,32.58 40.3,76.31 40.3,131.18 0,50.3 -13.72,95.17 -41.15,134.61 -27.44,39.45 -65.45,70.31 -114.04,92.6 -48.58,22.3 -105.46,33.44 -170.62,33.44zm1022.03 -12l0 -1183.23 361.82 0c92.6,0 168.91,15.15 228.93,45.45 60.02,30.29 104.32,71.16 132.9,122.61 28.58,51.44 42.87,110.32 42.87,176.62 0,64.02 -14.29,122.04 -42.87,174.06 -28.58,52.01 -72.59,93.17 -132.04,123.46 -59.45,30.3 -136.04,45.45 -229.79,45.45l-241.79 0 0 495.58 -120.03 0zm120.03 -598.47l241.79 0c101.75,0 174.06,-21.72 216.93,-65.17 42.87,-43.44 64.3,-101.74 64.3,-174.91 0,-77.74 -21.43,-137.75 -64.3,-180.05 -42.87,-42.3 -115.18,-63.45 -216.93,-63.45l-241.79 0 0 483.58zm1215.81 610.47c-81.17,0 -155.19,-20.29 -222.07,-60.87 -66.88,-40.59 -120.04,-97.18 -159.48,-169.77 -39.44,-72.59 -59.16,-156.33 -59.16,-251.22 0,-94.89 19.72,-178.34 59.16,-250.36 39.44,-72.03 92.6,-128.04 159.48,-168.06 66.88,-40.01 140.9,-60.02 222.07,-60.02 88.03,0 165.77,20.01 233.22,60.02 67.45,40.02 115.46,93.75 144.04,161.2l0 -209.21 120.04 0 0 936.29 -44.59 0c-24,0 -42.58,-6.57 -55.73,-19.72 -13.15,-13.15 -19.72,-31.72 -19.72,-55.73l0 -137.19c-29.72,67.45 -78.88,121.75 -147.47,162.91 -68.6,41.16 -145.19,61.73 -229.79,61.73zm29.15 -104.6c65.17,0 124.04,-15.43 176.63,-46.3 52.59,-30.87 94.31,-74.6 125.18,-131.18 30.87,-56.59 46.3,-123.19 46.3,-199.78 0,-76.6 -15.43,-142.9 -46.3,-198.92 -30.87,-56.02 -72.59,-99.17 -125.18,-129.47 -52.59,-30.29 -111.46,-45.44 -176.63,-45.44 -65.16,0 -124.04,15.15 -176.62,45.44 -52.59,30.3 -94.32,73.45 -125.19,129.47 -30.86,56.02 -46.3,122.32 -46.3,198.92 0,76.59 15.44,143.19 46.3,199.78 30.87,56.58 72.6,100.31 125.19,131.18 52.58,30.87 111.46,46.3 176.62,46.3zm742.52 -72.02l0 -1104.35 120.03 0 0 1094.06c0,27.44 7.43,47.73 22.3,60.87 14.86,13.15 32.58,19.72 53.16,19.72 12.57,0 25.15,-2.28 37.72,-6.85l27.44 90.88c-24.01,14.86 -53.16,22.29 -87.46,22.29 -27.43,0 -54.3,-5.71 -80.59,-17.14 -26.3,-11.44 -48.3,-30.3 -66.02,-56.59 -17.72,-26.3 -26.58,-60.59 -26.58,-102.89zm452.71 164.62l0 -936.29 120.03 0 0 204.06c13.72,-37.72 35.16,-72.88 64.31,-105.46 29.15,-32.58 64.88,-59.16 107.17,-79.74 42.3,-20.58 90.89,-30.87 145.76,-30.87 84.6,0 157.77,21.44 219.5,64.31 61.74,42.87 103.46,102.6 125.18,179.2 13.72,-46.87 36.59,-88.6 68.6,-125.18 32.01,-36.59 71.45,-65.45 118.32,-86.6 46.87,-21.15 97.74,-31.73 152.62,-31.73 112.03,0 200.92,35.16 266.65,105.47 65.74,70.3 98.6,166.05 98.6,287.23l0 555.6 -118.32 0 0 -529.88c0,-101.75 -25.43,-179.48 -76.31,-233.21 -50.87,-53.74 -116.89,-80.6 -198.06,-80.6 -84.6,0 -154.05,31.72 -208.35,95.17 -54.3,63.45 -81.45,152.33 -81.45,266.66l0 481.86 -118.33 0 0 -516.16c0,-104.03 -25.15,-184.63 -75.45,-241.79 -50.3,-57.16 -117.18,-85.74 -200.63,-85.74 -54.88,0 -104.03,15.15 -147.48,45.44 -43.44,30.3 -78.02,72.6 -103.74,126.9 -25.73,54.3 -38.59,117.46 -38.59,189.49l0 481.86 -120.03 0zm2193.25 12c-69.73,0 -134.61,-10.57 -194.63,-31.72 -60.02,-21.15 -112.6,-52.02 -157.76,-92.6 -45.16,-40.58 -80.31,-90.03 -105.46,-148.33 -25.15,-58.31 -37.73,-125.18 -37.73,-200.64 0,-68.59 13.43,-132.32 40.3,-191.2 26.87,-58.87 63.73,-110.6 110.61,-155.19 46.87,-44.59 100.03,-79.17 159.47,-103.75 59.45,-24.58 121.18,-36.87 185.2,-36.87 56.02,0 107.47,7.15 154.34,21.44 46.87,14.29 87.17,34.58 120.89,60.88 33.73,26.29 60.02,56.3 78.88,90.02 18.87,33.73 28.3,70.6 28.3,110.61 0,59.45 -15.72,108.61 -47.16,147.47 -31.44,38.87 -73.45,69.17 -126.04,90.89 -52.59,21.72 -110.32,36.87 -173.19,45.44 -62.88,8.58 -126.33,12.86 -190.35,12.86 -26.29,0 -52.3,-0.57 -78.02,-1.71 -25.73,-1.14 -50.31,-3.14 -73.74,-6 -23.44,-2.86 -45.44,-5.43 -66.02,-7.72 5.71,51.44 24.29,99.46 55.73,144.05 31.44,44.58 74.31,80.31 128.61,107.17 54.3,26.87 116.9,40.3 187.77,40.3 52.59,0 101.18,-9.43 145.76,-28.29 44.59,-18.87 83.74,-41.45 117.47,-67.74 33.72,-26.29 60.3,-50.3 79.74,-72.02l87.45 68.59c-22.86,30.87 -55.16,62.02 -96.88,93.46 -41.73,31.44 -90.6,57.73 -146.62,78.88 -56.02,21.15 -118.32,31.72 -186.92,31.72zm-166.33 -485.29c49.15,0 99.17,-3.14 150.04,-9.43 50.88,-6.29 97.46,-16.29 139.76,-30.01 42.3,-13.72 76.6,-32.3 102.89,-55.73 26.29,-23.44 39.44,-52.3 39.44,-86.6 0,-36.58 -11.72,-69.17 -35.15,-97.75 -23.44,-28.58 -54.88,-50.87 -94.32,-66.87 -39.44,-16.01 -82.59,-24.01 -129.47,-24.01 -70.88,0 -134.9,17.43 -192.06,52.3 -57.16,34.87 -102.89,79.45 -137.18,133.76 -34.3,54.3 -53.16,111.17 -56.59,170.62 24.01,4.57 54.59,8 91.74,10.29 37.16,2.29 77.45,3.43 120.9,3.43zm799.11 473.29l0 -936.29 120.03 0 0 936.29 -120.03 0zm65.16 -485.29l54.87 -241.79c20.58,-70.88 58.88,-125.47 114.9,-163.77 56.01,-38.3 124.61,-57.45 205.77,-57.45l0 126.9c-8,-2.29 -16.29,-3.71 -24.86,-4.29 -8.57,-0.57 -16.86,-0.85 -24.87,-0.85 -51.44,0 -97.45,14.86 -138.04,44.58 -40.58,29.73 -72.88,70.31 -96.89,121.75 -24,51.45 -36.01,109.75 -36.01,174.92l-54.87 0zm939.72 497.29c-88.03,0 -167.2,-19.43 -237.51,-58.3 -70.3,-38.87 -125.75,-94.32 -166.33,-166.34 -40.59,-72.02 -60.88,-157.19 -60.88,-255.51 0,-99.46 20.86,-185.2 62.59,-257.22 41.73,-72.02 98.03,-127.18 168.91,-165.48 70.88,-38.3 149.76,-57.45 236.65,-57.45 88.02,0 167.48,19.15 238.36,57.45 70.88,38.3 126.89,93.46 168.05,165.48 41.16,72.02 61.73,157.76 61.73,257.22 0,98.32 -20.86,183.49 -62.59,255.51 -41.73,72.02 -98.31,127.47 -169.77,166.34 -71.45,38.87 -151.19,58.3 -239.21,58.3zm0 -104.6c59.44,0 115.46,-13.43 168.05,-40.3 52.59,-26.86 95.74,-68.02 129.47,-123.47 33.72,-55.44 50.59,-126.03 50.59,-211.78 0,-85.74 -16.58,-156.33 -49.73,-211.78 -33.16,-55.44 -76.03,-96.6 -128.62,-123.46 -52.58,-26.87 -108.6,-40.3 -168.05,-40.3 -59.44,0 -115.46,13.43 -168.05,40.3 -52.59,26.86 -95.17,68.02 -127.75,123.46 -32.59,55.45 -48.88,126.04 -48.88,211.78 0,85.75 16.29,156.34 48.88,211.78 32.58,55.45 74.88,96.61 126.89,123.47 52.02,26.87 107.75,40.3 167.2,40.3z"/>
   <g>
    <path class="fil1" d="M9960.92 15952.58l60.45 0 129.85 251.87 129.85 -251.87 60.45 0 0 375 -48.7 0 0 -296.64 -114.18 221.08 -54.85 0 -114.18 -221.08 0 296.64 -48.69 0 0 -375zm507.65 245.71c1.49,13.43 5.04,25.65 10.64,36.66 5.59,11.01 12.78,20.52 21.54,28.54 8.77,8.03 19.03,14.18 30.79,18.47 11.75,4.3 24.53,6.44 38.34,6.44 17.91,0 33.86,-3.54 47.85,-10.63 13.99,-7.09 24.16,-17.17 30.51,-30.23l53.17 0c-8.96,26.5 -25.38,47.3 -49.26,62.41 -23.88,15.11 -52.24,22.67 -85.07,22.67 -20.9,0 -40.3,-3.73 -58.21,-11.2 -17.91,-7.46 -33.49,-17.81 -46.73,-31.06 -13.25,-13.25 -23.61,-28.92 -31.07,-47.01 -7.46,-18.1 -11.19,-37.78 -11.19,-59.05 0,-21.27 3.73,-40.95 11.19,-59.05 7.46,-18.1 17.73,-33.86 30.79,-47.3 13.06,-13.43 28.54,-23.88 46.45,-31.34 17.91,-7.46 37.5,-11.19 58.77,-11.19 20.15,0 38.71,2.98 55.69,8.95 16.98,5.97 31.72,14.37 44.22,25.19 12.5,10.82 22.57,23.79 30.22,38.9 7.65,15.11 12.22,31.99 13.71,50.65 0.75,5.97 1.12,11.57 1.12,16.79 0,1.12 -0.09,3.55 -0.28,7.28 -0.19,3.73 -0.46,8.77 -0.84,15.11l-242.35 0zm192.54 -39.18c-2.24,-24.63 -11.76,-44.03 -28.55,-58.21 -16.79,-14.18 -38.62,-21.27 -65.48,-21.27 -12.31,0 -23.88,1.87 -34.7,5.6 -10.82,3.73 -20.43,9.14 -28.83,16.23 -8.39,7.09 -15.48,15.49 -21.27,25.19 -5.78,9.7 -9.79,20.52 -12.03,32.46l190.86 0zm-129.29 -179.66l100.18 -69.41 24.63 42.54 -105.22 59.89 -19.59 -33.02zm371.08 56.53c24.63,0 46.08,4.29 64.37,12.87 18.28,8.58 32.83,21.27 43.65,38.06l0 -162.31 45.9 0 0 402.98 -45.9 0 0 -45.9c-22.39,34.33 -58.39,51.5 -108.02,51.5 -20.9,0 -40.3,-3.73 -58.21,-11.2 -17.91,-7.46 -33.39,-17.81 -46.45,-31.06 -13.06,-13.25 -23.23,-29.01 -30.51,-47.29 -7.27,-18.29 -10.91,-38.06 -10.91,-59.33 0,-21.27 3.64,-40.95 10.91,-59.05 7.28,-18.1 17.45,-33.77 30.51,-47.02 13.06,-13.24 28.54,-23.6 46.45,-31.06 17.91,-7.46 37.31,-11.19 58.21,-11.19zm4.48 252.98c15.3,0 29.29,-2.61 41.97,-7.84 12.69,-5.22 23.61,-12.4 32.75,-21.54 9.14,-9.15 16.23,-20.15 21.27,-33.03 5.03,-12.87 7.55,-26.95 7.55,-42.25 0,-15.3 -2.52,-29.29 -7.55,-41.98 -5.04,-12.69 -12.13,-23.69 -21.27,-33.02 -9.14,-9.33 -20.06,-16.51 -32.75,-21.55 -12.68,-5.04 -26.67,-7.56 -41.97,-7.56 -14.93,0 -28.64,2.61 -41.14,7.84 -12.5,5.22 -23.32,12.5 -32.46,21.83 -9.15,9.33 -16.33,20.33 -21.55,33.02 -5.23,12.69 -7.84,26.49 -7.84,41.42 0,14.92 2.61,28.82 7.84,41.69 5.22,12.88 12.4,23.98 21.55,33.31 9.14,9.32 19.96,16.6 32.46,21.82 12.5,5.23 26.21,7.84 41.14,7.84zm228.91 -336.94c0,-9.33 3.17,-17.16 9.52,-23.51 6.34,-6.34 14.18,-9.51 23.5,-9.51 9.33,0 17.17,3.17 23.51,9.51 6.34,6.35 9.52,14.18 9.52,23.51 0,9.33 -3.18,17.17 -9.52,23.51 -6.34,6.34 -14.18,9.51 -23.51,9.51 -9.32,0 -17.16,-3.17 -23.5,-9.51 -6.35,-6.34 -9.52,-14.18 -9.52,-23.51zm10.08 88.99l45.89 0 0 286.57 -45.89 0 0 -286.57zm113.06 143.29c0,-21.27 3.82,-40.95 11.47,-59.05 7.65,-18.1 18.1,-33.86 31.35,-47.3 13.24,-13.43 28.91,-23.88 47.01,-31.34 18.1,-7.46 37.78,-11.19 59.05,-11.19 16.79,0 32.83,2.52 48.13,7.55 15.3,5.04 29.01,12.13 41.14,21.27 12.13,9.14 22.39,19.96 30.78,32.46 8.4,12.5 14.46,26.22 18.19,41.14l-50.37 0c-6.34,-16.79 -17.16,-30.69 -32.46,-41.7 -15.3,-11 -33.77,-16.51 -55.41,-16.51 -15.67,0 -29.76,2.8 -42.26,8.4 -12.5,5.6 -23.04,13.24 -31.62,22.95 -8.58,9.7 -15.21,20.8 -19.87,33.3 -4.67,12.5 -7,25.84 -7,40.02 0,13.8 2.33,27.05 7,39.74 4.66,12.68 11.29,23.78 19.87,33.3 8.58,9.51 19.12,17.07 31.62,22.67 12.5,5.59 26.59,8.39 42.26,8.39 21.64,0 40.11,-5.41 55.41,-16.23 15.3,-10.82 26.12,-24.63 32.46,-41.42l50.37 0c-3.73,14.93 -9.79,28.64 -18.19,41.14 -8.39,12.5 -18.65,23.23 -30.78,32.18 -12.13,8.96 -25.84,15.95 -41.14,20.99 -15.3,5.04 -31.34,7.56 -48.13,7.56 -21.27,0 -40.95,-3.83 -59.05,-11.48 -18.1,-7.65 -33.77,-18.09 -47.01,-31.34 -13.25,-13.25 -23.7,-28.92 -31.35,-47.01 -7.65,-18.1 -11.47,-37.6 -11.47,-58.49zm479.1 148.32c-21.27,0 -40.95,-3.83 -59.05,-11.48 -18.1,-7.65 -33.77,-18.09 -47.01,-31.34 -13.25,-13.25 -23.7,-28.92 -31.35,-47.01 -7.65,-18.1 -11.47,-37.6 -11.47,-58.49 0,-21.27 3.82,-40.95 11.47,-59.05 7.65,-18.1 18.1,-33.86 31.35,-47.3 13.24,-13.43 28.91,-23.88 47.01,-31.34 18.1,-7.46 37.78,-11.19 59.05,-11.19 20.89,0 40.39,3.73 58.49,11.19 18.09,7.46 33.86,17.91 47.29,31.34 13.43,13.44 23.98,29.2 31.62,47.3 7.65,18.1 11.48,37.78 11.48,59.05 0,20.89 -3.83,40.39 -11.48,58.49 -7.64,18.09 -18.19,33.76 -31.62,47.01 -13.43,13.25 -29.2,23.69 -47.29,31.34 -18.1,7.65 -37.6,11.48 -58.49,11.48zm0 -252.99c-15.67,0 -29.76,2.8 -42.26,8.4 -12.5,5.6 -23.04,13.24 -31.62,22.95 -8.58,9.7 -15.21,20.8 -19.87,33.3 -4.67,12.5 -7,25.84 -7,40.02 0,13.8 2.33,27.05 7,39.74 4.66,12.68 11.29,23.78 19.87,33.3 8.58,9.51 19.12,17.07 31.62,22.67 12.5,5.59 26.59,8.39 42.26,8.39 15.67,0 29.66,-2.8 41.98,-8.39 12.31,-5.6 22.85,-13.16 31.62,-22.67 8.77,-9.52 15.39,-20.62 19.87,-33.3 4.48,-12.69 6.71,-25.94 6.71,-39.74 0,-14.18 -2.23,-27.52 -6.71,-40.02 -4.48,-12.5 -11.1,-23.6 -19.87,-33.3 -8.77,-9.71 -19.31,-17.35 -31.62,-22.95 -12.32,-5.6 -26.31,-8.4 -41.98,-8.4zm514.92 -127.05c21.27,0 40.3,2.61 57.09,7.84 16.79,5.22 31.16,12.78 43.1,22.66 11.94,9.89 21.08,21.83 27.42,35.83 6.35,13.99 9.52,29.75 9.52,47.29 0,26.87 -7.47,49.63 -22.39,68.28 -14.93,18.66 -36.38,31.91 -64.37,39.74l91.23 153.36 -57.64 0 -85.08 -147.2 -97.95 0 0 147.2 -48.69 0 0 -375 147.76 0zm-5.04 185.82c29.11,0 51.68,-6.16 67.73,-18.47 16.04,-12.31 24.06,-29.66 24.06,-52.05 0,-22.39 -8.02,-39.74 -24.06,-52.05 -16.05,-12.32 -38.62,-18.47 -67.73,-18.47l-94.03 0 0 141.04 94.03 0zm345.34 -102.42c24.63,0 46.08,4.29 64.37,12.87 18.28,8.58 32.83,21.27 43.65,38.06l0 -45.9 45.9 0 0 286.57 -45.9 0 0 -45.9c-22.39,34.33 -58.39,51.5 -108.02,51.5 -20.9,0 -40.3,-3.73 -58.21,-11.2 -17.91,-7.46 -33.39,-17.81 -46.45,-31.06 -13.06,-13.25 -23.23,-29.01 -30.51,-47.29 -7.27,-18.29 -10.91,-38.06 -10.91,-59.33 0,-21.27 3.64,-40.95 10.91,-59.05 7.28,-18.1 17.45,-33.77 30.51,-47.02 13.06,-13.24 28.54,-23.6 46.45,-31.06 17.91,-7.46 37.31,-11.19 58.21,-11.19zm4.48 252.98c15.3,0 29.29,-2.61 41.97,-7.84 12.69,-5.22 23.61,-12.4 32.75,-21.54 9.14,-9.15 16.23,-20.15 21.27,-33.03 5.03,-12.87 7.55,-26.95 7.55,-42.25 0,-15.3 -2.52,-29.29 -7.55,-41.98 -5.04,-12.69 -12.13,-23.69 -21.27,-33.02 -9.14,-9.33 -20.06,-16.51 -32.75,-21.55 -12.68,-5.04 -26.67,-7.56 -41.97,-7.56 -14.93,0 -28.64,2.61 -41.14,7.84 -12.5,5.22 -23.32,12.5 -32.46,21.83 -9.15,9.33 -16.33,20.33 -21.55,33.02 -5.23,12.69 -7.84,26.49 -7.84,41.42 0,14.92 2.61,28.82 7.84,41.69 5.22,12.88 12.4,23.98 21.55,33.31 9.14,9.32 19.96,16.6 32.46,21.82 12.5,5.23 26.21,7.84 41.14,7.84zm362.68 -252.98c24.63,0 46.08,4.29 64.37,12.87 18.28,8.58 32.83,21.27 43.65,38.06l0 -162.31 45.9 0 0 402.98 -45.9 0 0 -45.9c-22.39,34.33 -58.39,51.5 -108.02,51.5 -20.9,0 -40.3,-3.73 -58.21,-11.2 -17.91,-7.46 -33.39,-17.81 -46.45,-31.06 -13.06,-13.25 -23.23,-29.01 -30.51,-47.29 -7.27,-18.29 -10.91,-38.06 -10.91,-59.33 0,-21.27 3.64,-40.95 10.91,-59.05 7.28,-18.1 17.45,-33.77 30.51,-47.02 13.06,-13.24 28.54,-23.6 46.45,-31.06 17.91,-7.46 37.31,-11.19 58.21,-11.19zm4.48 252.98c15.3,0 29.29,-2.61 41.97,-7.84 12.69,-5.22 23.61,-12.4 32.75,-21.54 9.14,-9.15 16.23,-20.15 21.27,-33.03 5.03,-12.87 7.55,-26.95 7.55,-42.25 0,-15.3 -2.52,-29.29 -7.55,-41.98 -5.04,-12.69 -12.13,-23.69 -21.27,-33.02 -9.14,-9.33 -20.06,-16.51 -32.75,-21.55 -12.68,-5.04 -26.67,-7.56 -41.97,-7.56 -14.93,0 -28.64,2.61 -41.14,7.84 -12.5,5.22 -23.32,12.5 -32.46,21.83 -9.15,9.33 -16.33,20.33 -21.55,33.02 -5.23,12.69 -7.84,26.49 -7.84,41.42 0,14.92 2.61,28.82 7.84,41.69 5.22,12.88 12.4,23.98 21.55,33.31 9.14,9.32 19.96,16.6 32.46,21.82 12.5,5.23 26.21,7.84 41.14,7.84zm228.91 -336.94c0,-9.33 3.17,-17.16 9.52,-23.51 6.34,-6.34 14.18,-9.51 23.5,-9.51 9.33,0 17.17,3.17 23.51,9.51 6.34,6.35 9.52,14.18 9.52,23.51 0,9.33 -3.18,17.17 -9.52,23.51 -6.34,6.34 -14.18,9.51 -23.51,9.51 -9.32,0 -17.16,-3.17 -23.5,-9.51 -6.35,-6.34 -9.52,-14.18 -9.52,-23.51zm10.08 88.99l45.89 0 0 286.57 -45.89 0 0 -286.57zm261.94 291.61c-21.27,0 -40.95,-3.83 -59.05,-11.48 -18.1,-7.65 -33.77,-18.09 -47.01,-31.34 -13.25,-13.25 -23.7,-28.92 -31.35,-47.01 -7.65,-18.1 -11.47,-37.6 -11.47,-58.49 0,-21.27 3.82,-40.95 11.47,-59.05 7.65,-18.1 18.1,-33.86 31.35,-47.3 13.24,-13.43 28.91,-23.88 47.01,-31.34 18.1,-7.46 37.78,-11.19 59.05,-11.19 20.89,0 40.39,3.73 58.49,11.19 18.09,7.46 33.86,17.91 47.29,31.34 13.43,13.44 23.98,29.2 31.62,47.3 7.65,18.1 11.48,37.78 11.48,59.05 0,20.89 -3.83,40.39 -11.48,58.49 -7.64,18.09 -18.19,33.76 -31.62,47.01 -13.43,13.25 -29.2,23.69 -47.29,31.34 -18.1,7.65 -37.6,11.48 -58.49,11.48zm0 -252.99c-15.67,0 -29.76,2.8 -42.26,8.4 -12.5,5.6 -23.04,13.24 -31.62,22.95 -8.58,9.7 -15.21,20.8 -19.87,33.3 -4.67,12.5 -7,25.84 -7,40.02 0,13.8 2.33,27.05 7,39.74 4.66,12.68 11.29,23.78 19.87,33.3 8.58,9.51 19.12,17.07 31.62,22.67 12.5,5.59 26.59,8.39 42.26,8.39 15.67,0 29.66,-2.8 41.98,-8.39 12.31,-5.6 22.85,-13.16 31.62,-22.67 8.77,-9.52 15.39,-20.62 19.87,-33.3 4.48,-12.69 6.71,-25.94 6.71,-39.74 0,-14.18 -2.23,-27.52 -6.71,-40.02 -4.48,-12.5 -11.1,-23.6 -19.87,-33.3 -8.77,-9.71 -19.31,-17.35 -31.62,-22.95 -12.32,-5.6 -26.31,-8.4 -41.98,-8.4zm-34.14 -100.18l100.18 -69.41 24.63 42.54 -105.22 59.89 -19.59 -33.02zm250.19 -54.85l45.89 0 0 402.98 -45.89 0 0 -402.98zm261.94 408.02c-21.27,0 -40.95,-3.83 -59.05,-11.48 -18.1,-7.65 -33.77,-18.09 -47.01,-31.34 -13.25,-13.25 -23.7,-28.92 -31.35,-47.01 -7.65,-18.1 -11.47,-37.6 -11.47,-58.49 0,-21.27 3.82,-40.95 11.47,-59.05 7.65,-18.1 18.1,-33.86 31.35,-47.3 13.24,-13.43 28.91,-23.88 47.01,-31.34 18.1,-7.46 37.78,-11.19 59.05,-11.19 20.89,0 40.39,3.73 58.49,11.19 18.09,7.46 33.86,17.91 47.29,31.34 13.43,13.44 23.98,29.2 31.62,47.3 7.65,18.1 11.48,37.78 11.48,59.05 0,20.89 -3.83,40.39 -11.48,58.49 -7.64,18.09 -18.19,33.76 -31.62,47.01 -13.43,13.25 -29.2,23.69 -47.29,31.34 -18.1,7.65 -37.6,11.48 -58.49,11.48zm0 -252.99c-15.67,0 -29.76,2.8 -42.26,8.4 -12.5,5.6 -23.04,13.24 -31.62,22.95 -8.58,9.7 -15.21,20.8 -19.87,33.3 -4.67,12.5 -7,25.84 -7,40.02 0,13.8 2.33,27.05 7,39.74 4.66,12.68 11.29,23.78 19.87,33.3 8.58,9.51 19.12,17.07 31.62,22.67 12.5,5.59 26.59,8.39 42.26,8.39 15.67,0 29.66,-2.8 41.98,-8.39 12.31,-5.6 22.85,-13.16 31.62,-22.67 8.77,-9.52 15.39,-20.62 19.87,-33.3 4.48,-12.69 6.71,-25.94 6.71,-39.74 0,-14.18 -2.23,-27.52 -6.71,-40.02 -4.48,-12.5 -11.1,-23.6 -19.87,-33.3 -8.77,-9.71 -19.31,-17.35 -31.62,-22.95 -12.32,-5.6 -26.31,-8.4 -41.98,-8.4zm442.16 193.66c-10.82,16.79 -25.18,29.48 -43.09,38.06 -17.91,8.58 -38.81,12.87 -62.69,12.87 -20.52,0 -39.46,-3.64 -56.81,-10.91 -17.35,-7.28 -32.37,-17.35 -45.05,-30.23 -12.69,-12.87 -22.67,-28.17 -29.95,-45.89 -7.27,-17.73 -10.91,-36.85 -10.91,-57.37 0,-20.9 3.64,-40.11 10.91,-57.65 7.28,-17.54 17.26,-32.74 29.95,-45.62 12.68,-12.87 27.7,-22.94 45.05,-30.22 17.35,-7.28 36.29,-10.91 56.81,-10.91 23.88,0 44.78,4.38 62.69,13.15 17.91,8.77 32.27,21.55 43.09,38.34l0 -45.9 45.9 0 0 274.26c0,45.15 -12.13,79.29 -36.38,102.42 -24.25,23.14 -59.7,34.7 -106.34,34.7 -23.88,0 -43.85,-2.61 -59.89,-7.83 -16.05,-5.23 -29.11,-12.04 -39.18,-20.43 -10.07,-8.4 -17.54,-17.91 -22.39,-28.55 -4.85,-10.63 -7.83,-21.17 -8.95,-31.62l48.13 0c1.87,8.58 5.22,15.77 10.08,21.55 4.85,5.78 10.91,10.54 18.19,14.27 7.27,3.73 15.48,6.34 24.62,7.84 9.14,1.49 18.75,2.24 28.83,2.24 32.83,0 57.27,-8.21 73.32,-24.63 16.04,-16.42 24.06,-41.79 24.06,-76.12l0 -35.82zm-100.74 -193.66c-14.55,0 -27.89,2.52 -40.02,7.56 -12.13,5.04 -22.67,12.03 -31.62,20.99 -8.96,8.95 -15.95,19.59 -20.99,31.9 -5.04,12.31 -7.56,25.56 -7.56,39.74 0,14.55 2.52,27.89 7.56,40.02 5.04,12.12 12.03,22.67 20.99,31.62 8.95,8.96 19.49,15.95 31.62,20.99 12.13,5.04 25.47,7.56 40.02,7.56 14.92,0 28.54,-2.43 40.86,-7.28 12.31,-4.85 22.94,-11.75 31.9,-20.71 8.95,-8.95 15.86,-19.59 20.71,-31.9 4.85,-12.32 7.27,-25.75 7.27,-40.3 0,-14.55 -2.42,-27.99 -7.27,-40.3 -4.85,-12.31 -11.76,-22.95 -20.71,-31.9 -8.96,-8.96 -19.59,-15.86 -31.9,-20.71 -12.32,-4.85 -25.94,-7.28 -40.86,-7.28zm362.69 252.99c-21.27,0 -40.95,-3.83 -59.05,-11.48 -18.1,-7.65 -33.77,-18.09 -47.01,-31.34 -13.25,-13.25 -23.7,-28.92 -31.35,-47.01 -7.65,-18.1 -11.47,-37.6 -11.47,-58.49 0,-21.27 3.82,-40.95 11.47,-59.05 7.65,-18.1 18.1,-33.86 31.35,-47.3 13.24,-13.43 28.91,-23.88 47.01,-31.34 18.1,-7.46 37.78,-11.19 59.05,-11.19 20.89,0 40.39,3.73 58.49,11.19 18.09,7.46 33.86,17.91 47.29,31.34 13.43,13.44 23.98,29.2 31.62,47.3 7.65,18.1 11.48,37.78 11.48,59.05 0,20.89 -3.83,40.39 -11.48,58.49 -7.64,18.09 -18.19,33.76 -31.62,47.01 -13.43,13.25 -29.2,23.69 -47.29,31.34 -18.1,7.65 -37.6,11.48 -58.49,11.48zm0 -252.99c-15.67,0 -29.76,2.8 -42.26,8.4 -12.5,5.6 -23.04,13.24 -31.62,22.95 -8.58,9.7 -15.21,20.8 -19.87,33.3 -4.67,12.5 -7,25.84 -7,40.02 0,13.8 2.33,27.05 7,39.74 4.66,12.68 11.29,23.78 19.87,33.3 8.58,9.51 19.12,17.07 31.62,22.67 12.5,5.59 26.59,8.39 42.26,8.39 15.67,0 29.66,-2.8 41.98,-8.39 12.31,-5.6 22.85,-13.16 31.62,-22.67 8.77,-9.52 15.39,-20.62 19.87,-33.3 4.48,-12.69 6.71,-25.94 6.71,-39.74 0,-14.18 -2.23,-27.52 -6.71,-40.02 -4.48,-12.5 -11.1,-23.6 -19.87,-33.3 -8.77,-9.71 -19.31,-17.35 -31.62,-22.95 -12.32,-5.6 -26.31,-8.4 -41.98,-8.4zm898.85 60.45c0,-27.24 4.95,-52.61 14.84,-76.12 9.89,-23.51 23.5,-43.94 40.86,-61.29 17.35,-17.35 37.77,-30.97 61.28,-40.85 23.51,-9.89 48.88,-14.84 76.12,-14.84 27.24,0 52.61,4.95 76.12,14.84 23.51,9.88 43.94,23.5 61.29,40.85 17.35,17.35 30.97,37.78 40.86,61.29 9.88,23.51 14.83,48.88 14.83,76.12 0,27.24 -4.95,52.61 -14.83,76.12 -9.89,23.51 -23.51,43.94 -40.86,61.29 -17.35,17.35 -37.78,30.97 -61.29,40.85 -23.51,9.89 -48.88,14.84 -76.12,14.84 -27.24,0 -52.61,-4.95 -76.12,-14.84 -23.51,-9.88 -43.93,-23.5 -61.28,-40.85 -17.36,-17.35 -30.97,-37.78 -40.86,-61.29 -9.89,-23.51 -14.84,-48.88 -14.84,-76.12zm50.38 0c0,20.9 3.54,40.21 10.63,57.93 7.09,17.72 16.98,33.12 29.67,46.17 12.68,13.06 27.79,23.23 45.33,30.51 17.54,7.27 36.57,10.91 57.09,10.91 20.52,0 39.55,-3.64 57.09,-10.91 17.54,-7.28 32.65,-17.45 45.34,-30.51 12.68,-13.05 22.57,-28.45 29.66,-46.17 7.09,-17.72 10.63,-37.03 10.63,-57.93 0,-20.89 -3.54,-40.2 -10.63,-57.93 -7.09,-17.72 -16.98,-33.11 -29.66,-46.17 -12.69,-13.06 -27.8,-23.23 -45.34,-30.51 -17.54,-7.27 -36.57,-10.91 -57.09,-10.91 -20.52,0 -39.55,3.64 -57.09,10.91 -17.54,7.28 -32.65,17.45 -45.33,30.51 -12.69,13.06 -22.58,28.45 -29.67,46.17 -7.09,17.73 -10.63,37.04 -10.63,57.93zm408.58 -99.07l45.89 0 0 53.18c11.57,-19.03 26.49,-33.59 44.78,-43.66 18.28,-10.08 38.99,-15.11 62.12,-15.11 15.3,0 29.3,2.61 41.98,7.83 12.69,5.23 23.7,12.6 33.02,22.11 9.33,9.52 16.52,20.9 21.55,34.14 5.04,13.25 7.56,27.89 7.56,43.94l0 184.14 -45.9 0 0 -177.98c0,-22.39 -6.43,-39.93 -19.31,-52.62 -12.87,-12.68 -30.5,-19.03 -52.89,-19.03 -11.57,0 -22.85,2.8 -33.86,8.4 -11.01,5.6 -20.8,13.15 -29.38,22.67 -8.59,9.51 -15.49,20.43 -20.71,32.74 -5.23,12.31 -8.21,25.37 -8.96,39.18l0 146.64 -45.89 0 0 -286.57zm321.27 143.29c0,-21.27 3.82,-40.95 11.47,-59.05 7.65,-18.1 18.1,-33.86 31.35,-47.3 13.24,-13.43 28.91,-23.88 47.01,-31.34 18.1,-7.46 37.78,-11.19 59.05,-11.19 16.79,0 32.83,2.52 48.13,7.55 15.3,5.04 29.01,12.13 41.14,21.27 12.13,9.14 22.39,19.96 30.78,32.46 8.4,12.5 14.46,26.22 18.19,41.14l-50.37 0c-6.34,-16.79 -17.16,-30.69 -32.46,-41.7 -15.3,-11 -33.77,-16.51 -55.41,-16.51 -15.67,0 -29.76,2.8 -42.26,8.4 -12.5,5.6 -23.04,13.24 -31.62,22.95 -8.58,9.7 -15.21,20.8 -19.87,33.3 -4.67,12.5 -7,25.84 -7,40.02 0,13.8 2.33,27.05 7,39.74 4.66,12.68 11.29,23.78 19.87,33.3 8.58,9.51 19.12,17.07 31.62,22.67 12.5,5.59 26.59,8.39 42.26,8.39 21.64,0 40.11,-5.41 55.41,-16.23 15.3,-10.82 26.12,-24.63 32.46,-41.42l50.37 0c-3.73,14.93 -9.79,28.64 -18.19,41.14 -8.39,12.5 -18.65,23.23 -30.78,32.18 -12.13,8.96 -25.84,15.95 -41.14,20.99 -15.3,5.04 -31.34,7.56 -48.13,7.56 -21.27,0 -40.95,-3.83 -59.05,-11.48 -18.1,-7.65 -33.77,-18.09 -47.01,-31.34 -13.25,-13.25 -23.7,-28.92 -31.35,-47.01 -7.65,-18.1 -11.47,-37.6 -11.47,-58.49zm479.1 148.32c-21.27,0 -40.95,-3.83 -59.05,-11.48 -18.1,-7.65 -33.77,-18.09 -47.01,-31.34 -13.25,-13.25 -23.7,-28.92 -31.35,-47.01 -7.65,-18.1 -11.47,-37.6 -11.47,-58.49 0,-21.27 3.82,-40.95 11.47,-59.05 7.65,-18.1 18.1,-33.86 31.35,-47.3 13.24,-13.43 28.91,-23.88 47.01,-31.34 18.1,-7.46 37.78,-11.19 59.05,-11.19 20.89,0 40.39,3.73 58.49,11.19 18.09,7.46 33.86,17.91 47.29,31.34 13.43,13.44 23.98,29.2 31.62,47.3 7.65,18.1 11.48,37.78 11.48,59.05 0,20.89 -3.83,40.39 -11.48,58.49 -7.64,18.09 -18.19,33.76 -31.62,47.01 -13.43,13.25 -29.2,23.69 -47.29,31.34 -18.1,7.65 -37.6,11.48 -58.49,11.48zm0 -252.99c-15.67,0 -29.76,2.8 -42.26,8.4 -12.5,5.6 -23.04,13.24 -31.62,22.95 -8.58,9.7 -15.21,20.8 -19.87,33.3 -4.67,12.5 -7,25.84 -7,40.02 0,13.8 2.33,27.05 7,39.74 4.66,12.68 11.29,23.78 19.87,33.3 8.58,9.51 19.12,17.07 31.62,22.67 12.5,5.59 26.59,8.39 42.26,8.39 15.67,0 29.66,-2.8 41.98,-8.39 12.31,-5.6 22.85,-13.16 31.62,-22.67 8.77,-9.52 15.39,-20.62 19.87,-33.3 4.48,-12.69 6.71,-25.94 6.71,-39.74 0,-14.18 -2.23,-27.52 -6.71,-40.02 -4.48,-12.5 -11.1,-23.6 -19.87,-33.3 -8.77,-9.71 -19.31,-17.35 -31.62,-22.95 -12.32,-5.6 -26.31,-8.4 -41.98,-8.4zm216.05 -155.03l45.89 0 0 402.98 -45.89 0 0 -402.98zm261.94 408.02c-21.27,0 -40.95,-3.83 -59.05,-11.48 -18.1,-7.65 -33.77,-18.09 -47.01,-31.34 -13.25,-13.25 -23.7,-28.92 -31.35,-47.01 -7.65,-18.1 -11.47,-37.6 -11.47,-58.49 0,-21.27 3.82,-40.95 11.47,-59.05 7.65,-18.1 18.1,-33.86 31.35,-47.3 13.24,-13.43 28.91,-23.88 47.01,-31.34 18.1,-7.46 37.78,-11.19 59.05,-11.19 20.89,0 40.39,3.73 58.49,11.19 18.09,7.46 33.86,17.91 47.29,31.34 13.43,13.44 23.98,29.2 31.62,47.3 7.65,18.1 11.48,37.78 11.48,59.05 0,20.89 -3.83,40.39 -11.48,58.49 -7.64,18.09 -18.19,33.76 -31.62,47.01 -13.43,13.25 -29.2,23.69 -47.29,31.34 -18.1,7.65 -37.6,11.48 -58.49,11.48zm0 -252.99c-15.67,0 -29.76,2.8 -42.26,8.4 -12.5,5.6 -23.04,13.24 -31.62,22.95 -8.58,9.7 -15.21,20.8 -19.87,33.3 -4.67,12.5 -7,25.84 -7,40.02 0,13.8 2.33,27.05 7,39.74 4.66,12.68 11.29,23.78 19.87,33.3 8.58,9.51 19.12,17.07 31.62,22.67 12.5,5.59 26.59,8.39 42.26,8.39 15.67,0 29.66,-2.8 41.98,-8.39 12.31,-5.6 22.85,-13.16 31.62,-22.67 8.77,-9.52 15.39,-20.62 19.87,-33.3 4.48,-12.69 6.71,-25.94 6.71,-39.74 0,-14.18 -2.23,-27.52 -6.71,-40.02 -4.48,-12.5 -11.1,-23.6 -19.87,-33.3 -8.77,-9.71 -19.31,-17.35 -31.62,-22.95 -12.32,-5.6 -26.31,-8.4 -41.98,-8.4z"/>
    <path class="fil1" d="M17726.75 16273.29c-10.82,16.79 -25.18,29.48 -43.09,38.06 -17.91,8.58 -38.81,12.87 -62.69,12.87 -20.52,0 -39.46,-3.64 -56.81,-10.91 -17.35,-7.28 -32.37,-17.35 -45.05,-30.23 -12.69,-12.87 -22.67,-28.17 -29.95,-45.89 -7.27,-17.73 -10.91,-36.85 -10.91,-57.37 0,-20.9 3.64,-40.11 10.91,-57.65 7.28,-17.54 17.26,-32.74 29.95,-45.62 12.68,-12.87 27.7,-22.94 45.05,-30.22 17.35,-7.28 36.29,-10.91 56.81,-10.91 23.88,0 44.78,4.38 62.69,13.15 17.91,8.77 32.27,21.55 43.09,38.34l0 -45.9 45.9 0 0 274.26c0,45.15 -12.13,79.29 -36.38,102.42 -24.25,23.14 -59.7,34.7 -106.34,34.7 -23.88,0 -43.85,-2.61 -59.89,-7.83 -16.05,-5.23 -29.11,-12.04 -39.18,-20.43 -10.07,-8.4 -17.54,-17.91 -22.39,-28.55 -4.85,-10.63 -7.83,-21.17 -8.95,-31.62l48.13 0c1.87,8.58 5.22,15.77 10.08,21.55 4.85,5.78 10.91,10.54 18.19,14.27 7.27,3.73 15.48,6.34 24.62,7.84 9.14,1.49 18.75,2.24 28.83,2.24 32.83,0 57.27,-8.21 73.32,-24.63 16.04,-16.42 24.06,-41.79 24.06,-76.12l0 -35.82zm-100.74 -193.66c-14.55,0 -27.89,2.52 -40.02,7.56 -12.13,5.04 -22.67,12.03 -31.62,20.99 -8.96,8.95 -15.95,19.59 -20.99,31.9 -5.04,12.31 -7.56,25.56 -7.56,39.74 0,14.55 2.52,27.89 7.56,40.02 5.04,12.12 12.03,22.67 20.99,31.62 8.95,8.96 19.49,15.95 31.62,20.99 12.13,5.04 25.47,7.56 40.02,7.56 14.92,0 28.54,-2.43 40.86,-7.28 12.31,-4.85 22.94,-11.75 31.9,-20.71 8.95,-8.95 15.86,-19.59 20.71,-31.9 4.85,-12.32 7.27,-25.75 7.27,-40.3 0,-14.55 -2.42,-27.99 -7.27,-40.3 -4.85,-12.31 -11.76,-22.95 -20.71,-31.9 -8.96,-8.96 -19.59,-15.86 -31.9,-20.71 -12.32,-4.85 -25.94,-7.28 -40.86,-7.28zm235.64 -38.62l45.89 0 0 286.57 -45.89 0 0 -286.57zm-22.95 -61.56l100.18 -69.41 24.63 42.54 -105.22 59.89 -19.59 -33.02zm281.53 56.53c24.63,0 46.08,4.29 64.37,12.87 18.28,8.58 32.83,21.27 43.65,38.06l0 -45.9 45.9 0 0 286.57 -45.9 0 0 -45.9c-22.39,34.33 -58.39,51.5 -108.02,51.5 -20.9,0 -40.3,-3.73 -58.21,-11.2 -17.91,-7.46 -33.39,-17.81 -46.45,-31.06 -13.06,-13.25 -23.23,-29.01 -30.51,-47.29 -7.27,-18.29 -10.91,-38.06 -10.91,-59.33 0,-21.27 3.64,-40.95 10.91,-59.05 7.28,-18.1 17.45,-33.77 30.51,-47.02 13.06,-13.24 28.54,-23.6 46.45,-31.06 17.91,-7.46 37.31,-11.19 58.21,-11.19zm4.48 252.98c15.3,0 29.29,-2.61 41.97,-7.84 12.69,-5.22 23.61,-12.4 32.75,-21.54 9.14,-9.15 16.23,-20.15 21.27,-33.03 5.03,-12.87 7.55,-26.95 7.55,-42.25 0,-15.3 -2.52,-29.29 -7.55,-41.98 -5.04,-12.69 -12.13,-23.69 -21.27,-33.02 -9.14,-9.33 -20.06,-16.51 -32.75,-21.55 -12.68,-5.04 -26.67,-7.56 -41.97,-7.56 -14.93,0 -28.64,2.61 -41.14,7.84 -12.5,5.22 -23.32,12.5 -32.46,21.83 -9.15,9.33 -16.33,20.33 -21.55,33.02 -5.23,12.69 -7.84,26.49 -7.84,41.42 0,14.92 2.61,28.82 7.84,41.69 5.22,12.88 12.4,23.98 21.55,33.31 9.14,9.32 19.96,16.6 32.46,21.82 12.5,5.23 26.21,7.84 41.14,7.84zm402.97 157.84l48.14 -121.46 -108.58 -284.33 49.81 0 82.83 222.76 87.88 -222.76 49.81 0 -162.31 405.79 -47.58 0zm414.18 -494.22l62.69 0 199.25 309.52 0 -309.52 48.69 0 0 375 -62.68 0 -199.26 -309.51 0 309.51 -48.69 0 0 -375zm437.68 245.71c1.49,13.43 5.04,25.65 10.64,36.66 5.59,11.01 12.78,20.52 21.54,28.54 8.77,8.03 19.03,14.18 30.79,18.47 11.75,4.3 24.53,6.44 38.34,6.44 17.91,0 33.86,-3.54 47.85,-10.63 13.99,-7.09 24.16,-17.17 30.51,-30.23l53.17 0c-8.96,26.5 -25.38,47.3 -49.26,62.41 -23.88,15.11 -52.24,22.67 -85.07,22.67 -20.9,0 -40.3,-3.73 -58.21,-11.2 -17.91,-7.46 -33.49,-17.81 -46.73,-31.06 -13.25,-13.25 -23.61,-28.92 -31.07,-47.01 -7.46,-18.1 -11.19,-37.78 -11.19,-59.05 0,-21.27 3.73,-40.95 11.19,-59.05 7.46,-18.1 17.73,-33.86 30.79,-47.3 13.06,-13.43 28.54,-23.88 46.45,-31.34 17.91,-7.46 37.5,-11.19 58.77,-11.19 20.15,0 38.71,2.98 55.69,8.95 16.98,5.97 31.72,14.37 44.22,25.19 12.5,10.82 22.57,23.79 30.22,38.9 7.65,15.11 12.22,31.99 13.71,50.65 0.75,5.97 1.12,11.57 1.12,16.79 0,1.12 -0.09,3.55 -0.28,7.28 -0.19,3.73 -0.46,8.77 -0.84,15.11l-242.35 0zm192.54 -39.18c-2.24,-24.63 -11.76,-44.03 -28.55,-58.21 -16.79,-14.18 -38.62,-21.27 -65.48,-21.27 -12.31,0 -23.88,1.87 -34.7,5.6 -10.82,3.73 -20.43,9.14 -28.83,16.23 -8.39,7.09 -15.48,15.49 -21.27,25.19 -5.78,9.7 -9.79,20.52 -12.03,32.46l190.86 0zm372.2 168.47l-45.9 0 0 -53.17c-11.56,19.03 -26.49,33.58 -44.77,43.66 -18.29,10.07 -38.99,15.11 -62.13,15.11 -15.3,0 -29.29,-2.61 -41.98,-7.84 -12.68,-5.22 -23.69,-12.59 -33.02,-22.11 -9.33,-9.51 -16.51,-20.89 -21.55,-34.14 -5.03,-13.24 -7.55,-27.89 -7.55,-43.94l0 -184.14 45.89 0 0 177.99c0,22.39 6.44,39.92 19.31,52.61 12.88,12.69 30.51,19.03 52.89,19.03 11.94,0 23.33,-2.8 34.15,-8.4 10.82,-5.59 20.52,-13.15 29.1,-22.66 8.58,-9.52 15.58,-20.43 20.99,-32.75 5.41,-12.31 8.3,-25.37 8.67,-39.17l0 -146.65 45.9 0 0 286.57zm89.56 -286.57l45.89 0 0 63.25c11.57,-23.13 27.24,-40.39 47.02,-51.77 19.77,-11.38 41.23,-17.07 64.36,-17.07l0 47.57c-12.31,0 -25.09,2.33 -38.34,7 -13.24,4.66 -25.28,11.56 -36.1,20.71 -10.82,9.14 -19.68,20.43 -26.58,33.86 -6.91,13.43 -10.36,28.92 -10.36,46.45l0 136.57 -45.89 0 0 -286.57zm345.33 291.61c-21.27,0 -40.95,-3.83 -59.05,-11.48 -18.1,-7.65 -33.77,-18.09 -47.01,-31.34 -13.25,-13.25 -23.7,-28.92 -31.35,-47.01 -7.65,-18.1 -11.47,-37.6 -11.47,-58.49 0,-21.27 3.82,-40.95 11.47,-59.05 7.65,-18.1 18.1,-33.86 31.35,-47.3 13.24,-13.43 28.91,-23.88 47.01,-31.34 18.1,-7.46 37.78,-11.19 59.05,-11.19 20.89,0 40.39,3.73 58.49,11.19 18.09,7.46 33.86,17.91 47.29,31.34 13.43,13.44 23.98,29.2 31.62,47.3 7.65,18.1 11.48,37.78 11.48,59.05 0,20.89 -3.83,40.39 -11.48,58.49 -7.64,18.09 -18.19,33.76 -31.62,47.01 -13.43,13.25 -29.2,23.69 -47.29,31.34 -18.1,7.65 -37.6,11.48 -58.49,11.48zm0 -252.99c-15.67,0 -29.76,2.8 -42.26,8.4 -12.5,5.6 -23.04,13.24 -31.62,22.95 -8.58,9.7 -15.21,20.8 -19.87,33.3 -4.67,12.5 -7,25.84 -7,40.02 0,13.8 2.33,27.05 7,39.74 4.66,12.68 11.29,23.78 19.87,33.3 8.58,9.51 19.12,17.07 31.62,22.67 12.5,5.59 26.59,8.39 42.26,8.39 15.67,0 29.66,-2.8 41.98,-8.39 12.31,-5.6 22.85,-13.16 31.62,-22.67 8.77,-9.52 15.39,-20.62 19.87,-33.3 4.48,-12.69 6.71,-25.94 6.71,-39.74 0,-14.18 -2.23,-27.52 -6.71,-40.02 -4.48,-12.5 -11.1,-23.6 -19.87,-33.3 -8.77,-9.71 -19.31,-17.35 -31.62,-22.95 -12.32,-5.6 -26.31,-8.4 -41.98,-8.4zm205.97 -127.61c0,-9.33 3.17,-17.16 9.52,-23.51 6.34,-6.34 14.18,-9.51 23.5,-9.51 9.33,0 17.17,3.17 23.51,9.51 6.34,6.35 9.52,14.18 9.52,23.51 0,9.33 -3.18,17.17 -9.52,23.51 -6.34,6.34 -14.18,9.51 -23.51,9.51 -9.32,0 -17.16,-3.17 -23.5,-9.51 -6.35,-6.34 -9.52,-14.18 -9.52,-23.51zm10.08 88.99l45.89 0 0 286.57 -45.89 0 0 -286.57zm181.34 48.14c21.64,-35.82 53.55,-53.73 95.71,-53.73 19.78,0 37.03,5.59 51.77,16.79 14.74,11.19 25.66,26.86 32.74,47.01 10.08,-20.52 24.07,-36.28 41.98,-47.29 17.91,-11.01 38.25,-16.51 61.01,-16.51 13.81,0 26.4,2.52 37.78,7.55 11.38,5.04 21.08,12.13 29.1,21.27 8.03,9.14 14.18,20.24 18.47,33.3 4.29,13.06 6.44,27.43 6.44,43.1l0 186.94 -45.9 0 0 -177.98c0,-22.39 -4.94,-39.93 -14.83,-52.62 -9.89,-12.68 -24.16,-19.03 -42.81,-19.03 -11.57,0 -22.39,2.62 -32.47,7.84 -10.07,5.22 -18.84,12.41 -26.3,21.55 -7.47,9.14 -13.44,19.96 -17.91,32.46 -4.48,12.5 -6.91,26.21 -7.28,41.14l0 146.64 -45.89 0 0 -177.98c0,-22.02 -5.32,-39.46 -15.96,-52.34 -10.63,-12.87 -25.09,-19.31 -43.37,-19.31 -11.2,0 -21.74,2.62 -31.63,7.84 -9.88,5.22 -18.47,12.41 -25.74,21.55 -7.28,9.14 -13.15,20.05 -17.63,32.74 -4.48,12.69 -6.91,26.31 -7.28,40.86l0 146.64 -45.89 0 0 -286.57 45.89 0 0 48.14zm585.45 -53.17c24.63,0 46.08,4.29 64.37,12.87 18.28,8.58 32.83,21.27 43.65,38.06l0 -45.9 45.9 0 0 286.57 -45.9 0 0 -45.9c-22.39,34.33 -58.39,51.5 -108.02,51.5 -20.9,0 -40.3,-3.73 -58.21,-11.2 -17.91,-7.46 -33.39,-17.81 -46.45,-31.06 -13.06,-13.25 -23.23,-29.01 -30.51,-47.29 -7.27,-18.29 -10.91,-38.06 -10.91,-59.33 0,-21.27 3.64,-40.95 10.91,-59.05 7.28,-18.1 17.45,-33.77 30.51,-47.02 13.06,-13.24 28.54,-23.6 46.45,-31.06 17.91,-7.46 37.31,-11.19 58.21,-11.19zm4.48 252.98c15.3,0 29.29,-2.61 41.97,-7.84 12.69,-5.22 23.61,-12.4 32.75,-21.54 9.14,-9.15 16.23,-20.15 21.27,-33.03 5.03,-12.87 7.55,-26.95 7.55,-42.25 0,-15.3 -2.52,-29.29 -7.55,-41.98 -5.04,-12.69 -12.13,-23.69 -21.27,-33.02 -9.14,-9.33 -20.06,-16.51 -32.75,-21.55 -12.68,-5.04 -26.67,-7.56 -41.97,-7.56 -14.93,0 -28.64,2.61 -41.14,7.84 -12.5,5.22 -23.32,12.5 -32.46,21.83 -9.15,9.33 -16.33,20.33 -21.55,33.02 -5.23,12.69 -7.84,26.49 -7.84,41.42 0,14.92 2.61,28.82 7.84,41.69 5.22,12.88 12.4,23.98 21.55,33.31 9.14,9.32 19.96,16.6 32.46,21.82 12.5,5.23 26.21,7.84 41.14,7.84zm465.1 -15.67c-10.82,16.79 -25.18,29.48 -43.09,38.06 -17.91,8.58 -38.81,12.87 -62.69,12.87 -20.52,0 -39.46,-3.64 -56.81,-10.91 -17.35,-7.28 -32.37,-17.35 -45.05,-30.23 -12.69,-12.87 -22.67,-28.17 -29.95,-45.89 -7.27,-17.73 -10.91,-36.85 -10.91,-57.37 0,-20.9 3.64,-40.11 10.91,-57.65 7.28,-17.54 17.26,-32.74 29.95,-45.62 12.68,-12.87 27.7,-22.94 45.05,-30.22 17.35,-7.28 36.29,-10.91 56.81,-10.91 23.88,0 44.78,4.38 62.69,13.15 17.91,8.77 32.27,21.55 43.09,38.34l0 -45.9 45.9 0 0 274.26c0,45.15 -12.13,79.29 -36.38,102.42 -24.25,23.14 -59.7,34.7 -106.34,34.7 -23.88,0 -43.85,-2.61 -59.89,-7.83 -16.05,-5.23 -29.11,-12.04 -39.18,-20.43 -10.07,-8.4 -17.54,-17.91 -22.39,-28.55 -4.85,-10.63 -7.83,-21.17 -8.95,-31.62l48.13 0c1.87,8.58 5.22,15.77 10.08,21.55 4.85,5.78 10.91,10.54 18.19,14.27 7.27,3.73 15.48,6.34 24.62,7.84 9.14,1.49 18.75,2.24 28.83,2.24 32.83,0 57.27,-8.21 73.32,-24.63 16.04,-16.42 24.06,-41.79 24.06,-76.12l0 -35.82zm-100.74 -193.66c-14.55,0 -27.89,2.52 -40.02,7.56 -12.13,5.04 -22.67,12.03 -31.62,20.99 -8.96,8.95 -15.95,19.59 -20.99,31.9 -5.04,12.31 -7.56,25.56 -7.56,39.74 0,14.55 2.52,27.89 7.56,40.02 5.04,12.12 12.03,22.67 20.99,31.62 8.95,8.96 19.49,15.95 31.62,20.99 12.13,5.04 25.47,7.56 40.02,7.56 14.92,0 28.54,-2.43 40.86,-7.28 12.31,-4.85 22.94,-11.75 31.9,-20.71 8.95,-8.95 15.86,-19.59 20.71,-31.9 4.85,-12.32 7.27,-25.75 7.27,-40.3 0,-14.55 -2.42,-27.99 -7.27,-40.3 -4.85,-12.31 -11.76,-22.95 -20.71,-31.9 -8.96,-8.96 -19.59,-15.86 -31.9,-20.71 -12.32,-4.85 -25.94,-7.28 -40.86,-7.28zm262.5 118.66c1.49,13.43 5.04,25.65 10.64,36.66 5.59,11.01 12.78,20.52 21.54,28.54 8.77,8.03 19.03,14.18 30.79,18.47 11.75,4.3 24.53,6.44 38.34,6.44 17.91,0 33.86,-3.54 47.85,-10.63 13.99,-7.09 24.16,-17.17 30.51,-30.23l53.17 0c-8.96,26.5 -25.38,47.3 -49.26,62.41 -23.88,15.11 -52.24,22.67 -85.07,22.67 -20.9,0 -40.3,-3.73 -58.21,-11.2 -17.91,-7.46 -33.49,-17.81 -46.73,-31.06 -13.25,-13.25 -23.61,-28.92 -31.07,-47.01 -7.46,-18.1 -11.19,-37.78 -11.19,-59.05 0,-21.27 3.73,-40.95 11.19,-59.05 7.46,-18.1 17.73,-33.86 30.79,-47.3 13.06,-13.43 28.54,-23.88 46.45,-31.34 17.91,-7.46 37.5,-11.19 58.77,-11.19 20.15,0 38.71,2.98 55.69,8.95 16.98,5.97 31.72,14.37 44.22,25.19 12.5,10.82 22.57,23.79 30.22,38.9 7.65,15.11 12.22,31.99 13.71,50.65 0.75,5.97 1.12,11.57 1.12,16.79 0,1.12 -0.09,3.55 -0.28,7.28 -0.19,3.73 -0.46,8.77 -0.84,15.11l-242.35 0zm192.54 -39.18c-2.24,-24.63 -11.76,-44.03 -28.55,-58.21 -16.79,-14.18 -38.62,-21.27 -65.48,-21.27 -12.31,0 -23.88,1.87 -34.7,5.6 -10.82,3.73 -20.43,9.14 -28.83,16.23 -8.39,7.09 -15.48,15.49 -21.27,25.19 -5.78,9.7 -9.79,20.52 -12.03,32.46l190.86 0zm118.1 -118.1l45.89 0 0 53.18c11.57,-19.03 26.49,-33.59 44.78,-43.66 18.28,-10.08 38.99,-15.11 62.12,-15.11 15.3,0 29.3,2.61 41.98,7.83 12.69,5.23 23.7,12.6 33.02,22.11 9.33,9.52 16.52,20.9 21.55,34.14 5.04,13.25 7.56,27.89 7.56,43.94l0 184.14 -45.9 0 0 -177.98c0,-22.39 -6.43,-39.93 -19.31,-52.62 -12.87,-12.68 -30.5,-19.03 -52.89,-19.03 -11.57,0 -22.85,2.8 -33.86,8.4 -11.01,5.6 -20.8,13.15 -29.38,22.67 -8.59,9.51 -15.49,20.43 -20.71,32.74 -5.23,12.31 -8.21,25.37 -8.96,39.18l0 146.64 -45.89 0 0 -286.57z"/>
   </g>
   <path class="fil2" d="M15071.6 16117.29c32.63,0 59.08,26.45 59.08,59.08 0,32.63 -26.45,59.08 -59.08,59.08 -32.63,0 -59.08,-26.45 -59.08,-59.08 0,-32.63 26.45,-59.08 59.08,-59.08z"/>
   <path class="fil3" d="M6405.45 15948.34c141.94,-585.09 430.65,-856.45 534.76,-1640 30.08,-226.3 28.43,-415.79 -40.85,-469.98 26.51,135.12 9.74,298.29 -19.59,457.6 -91.02,494.79 -469.61,1385.38 -474.32,1652.38z"/>
   <path class="fil4" d="M6255.35 16112.49c-243.49,-598.74 220.28,-1321.53 305.53,-1882.24 81.07,-533.19 31.86,-1105.92 32.2,-1106.78 6.12,-226.59 100.98,-416.61 316.74,-502.42 502.98,-200.11 644.25,-167.24 675.15,-669.69 201.79,116.57 297.15,175.84 519.14,7.56 96.1,-72.82 205.46,-271.87 222.36,-419.63 -51.9,51.82 -138.29,335.55 -364.32,422.02 -76.36,29.2 -146.83,22.97 -214.7,-13.97 -409.83,-223.19 -462.93,-791.99 -452.31,-1093.55 -86.89,272.58 -33.96,629.87 126.92,905.57 40.86,70 84.8,105.18 84.66,213.1 -1.03,762.42 -1027.49,166.23 -1040.77,1237.27 -5.51,444.09 48.81,764.84 -4.9,1037.96 -102.81,522.83 -602.31,1228.08 -205.7,1864.8z"/>
   <path class="fil5" d="M7615.01 13173.62l-19.37 9c-65.6,35.14 -71.53,206.25 116.5,129.96 164.88,116.38 29.24,129.14 309.13,185.5l30.41 77.16c2.68,70.94 -147.39,101.33 18.53,281.58 -46.84,96.28 -42.99,21.49 -52.32,185.5 -2.3,40.43 -45.88,145.05 -89.37,167.86 -0.25,0.14 -186.75,23.98 -105.66,144.04 50.81,75.21 156.05,16.85 160.55,-42.78l-19.66 -62.85c10.83,-14.3 106.11,-128.12 108.59,-130.28 58.85,92.27 -21.76,134.37 36.33,236.34 29.92,52.56 56.83,43.78 68.87,93.54 38.91,160.75 210.24,64.78 160.77,-36.14 -38.99,-79.52 -74.07,-39.12 -139.22,-41.17 -92.77,-117.24 -2.75,-146.31 -35.78,-241.42 -44.07,-126.97 -118.34,-138.21 -42.89,-250.53 122.98,-24.8 81.33,-32.86 169.7,24.74 83.71,54.55 120.28,-22.17 171.87,-14.95l33.12 34.61c45.1,52.71 54.4,46.75 90.01,64.38 42.36,32.4 121.56,17.04 165.89,-30.59 39.31,-42.22 39.12,-97.76 96.31,-119.37 40.69,48.82 70.11,105 146.76,51.69 84.89,-59.03 -10.57,-209.03 -105.32,-135.4 -61.98,48.17 22.56,-0.52 -90.9,59.64 -118.08,62.63 -62.57,209.35 -244.52,90.45l-76.49 -86.48 34.18 -27.38c85.57,-55.15 78.73,-87.1 28.49,-182.55 60.72,-6.42 102.07,14.46 167.42,-20.71 54.73,-29.46 77.4,-81.84 117.18,-120.44 114.1,35.21 163.16,-75.11 99.36,-138.42 -30.28,-30.03 -74.53,-29.65 -112.58,-2.8 -85.61,60.41 61.8,72.08 -127.2,207.22 -46.3,33.09 -105.06,39.79 -147.93,30.3 0.45,-68.88 14.27,-99.7 -53.02,-164.43 -66.84,-64.34 -99.17,-6.77 -178.13,-23.34 -18.15,-74.07 54.2,-145.41 -69.14,-239.45 -89.18,-68 -110.69,-18.37 -146.67,-228.7 164.69,-139.08 -97.01,-238.46 -114.78,-90.05 -6.09,50.96 33.79,76.28 59.5,94.71 31.14,309.74 94,202.41 179.44,298.65 32.73,36.88 29.62,88.2 24,121.88 -100.4,2.96 -166.71,7.03 -205.32,112.73 -96,-2.98 -134.03,-52.34 -218.37,-127.77 -32.76,-29.29 -82.99,-50.77 -92.96,-72.53 -25.22,-55.05 -50.55,-81.08 -105.31,-70.95zm597.82 357.65c126.96,-103.73 287.46,88.02 155.39,189.15 -131.12,100.39 -279.07,-88.07 -155.39,-189.15zm277.03 190.49c-7.97,-70.75 -40.59,-101.03 -31.25,-176.05 8.61,-69.26 -32.07,-116.25 -93.78,-107.23 -119.45,17.49 -58.75,20.39 -151.85,-29.55 -53.41,-28.65 -104.83,-1.36 -104.82,59.96 0.01,75.78 45.02,104.34 1.72,165.15 -28.4,39.9 -71.34,79.49 -11.56,144.79 43.8,47.87 91,13.3 157.23,15.23 65.14,1.93 51.55,75.36 133.39,59.67 30.9,-36.81 9.33,-39.02 34.74,-73.12 12.56,-16.89 53.28,-47.11 66.18,-58.85z"/>
   <path class="fil6" d="M7026.08 14066.25c95.33,384.61 46.39,690.16 -40.42,980.53 -104.77,350.4 -488.36,1477.64 -67.66,1981.06 -102.62,-512.37 -130.09,-1213.25 213.4,-2024.31 90.17,-308.56 155.95,-698.09 -105.32,-937.28z"/>
   <path class="fil6" d="M7401.9 14030.49c200.16,-21.47 296.31,-135.84 321.92,-183.74 -55.03,37.28 -174.12,116.54 -369.17,97.24 -295.19,-29.17 -379.02,-261.01 -370.19,-450.3 8,-171.79 93.65,-296.51 144.14,-430.96 -108.89,65.28 -273.05,265.72 -237.29,527.25 33.78,247.12 205.42,473.29 510.59,440.51z"/>
   <path class="fil3" d="M8612.95 15166.06c-43.54,-165.96 -78.08,-340.97 -93.79,-532.73 -56.24,203.22 -33.54,393.44 21.79,596.8 238.35,875.82 431.27,877.49 306.19,1856.08 363.29,-502.88 -142.25,-1569.79 -234.19,-1920.15z"/>
   <path class="fil7" d="M8507.97 15512.47c-80.11,486.1 -466.71,592.76 -605.01,1145.7 -21.4,85.63 -40.57,180.69 -55.29,282.59 48.06,-53.59 81.76,-280.46 194.86,-480.81 128.74,-228.11 310.3,-369.06 382.73,-519.99 75.7,-157.72 127.2,-303.48 82.71,-427.49z"/>
   <path class="fil3" d="M7360.08 15418.53c-322.35,112.04 -139.09,545.56 140.02,452.23 303.45,-101.51 148.43,-552.49 -140.02,-452.23z"/>
   <path class="fil3" d="M7266.64 16000.42c311.81,218.21 421.35,440.36 503.09,985.15 105.33,-351.14 -197.11,-957.26 -503.09,-985.15z"/>
   <path class="fil8" d="M8212.83 13531.28c-123.68,101.07 24.27,289.53 155.39,189.13 132.07,-101.12 -28.43,-292.88 -155.39,-189.13z"/>
   <path class="fil9" d="M8566.66 13292.23c32.56,-26.02 39.29,-78.48 5.35,-119.24 -32.46,-38.96 -105.4,-38.55 -133.37,5.96 -45.45,72.31 39.11,184.4 128.02,113.28z"/>
   <path class="fil5" d="M8237 14024.16c-67.34,72.37 33.05,174.99 108.88,108.5 71.75,-62.9 -34.98,-187.88 -108.88,-108.5z"/>
   <path class="fil3" d="M7909.33 13236.1c3.31,86.11 95.94,99.61 137.5,53.71 93.57,-103.42 -142.23,-175.97 -137.5,-53.71z"/>
   <path class="fil3" d="M7501.59 15073.63c-125.2,43.2 -62.68,214.56 54.32,179.81 114.52,-34.01 71.7,-223.3 -54.32,-179.81z"/>
   <path class="fil10" d="M7804.92 13492.45c-39.58,-2 -78.77,33.9 -77.06,69.55 2.42,50.65 40.09,77.63 78.17,74 98.73,-9.41 75.04,-139.7 -1.11,-143.55z"/>
   <path class="fil3" d="M6262.24 13084.37c-312.99,133.81 -521.84,493.64 -574.46,776.7 -74.22,399.3 44.95,820.05 356.67,1087.73 -277.73,-374.76 -349.05,-774.96 -286.28,-1079.2 52,-252.08 188.76,-543.82 504.07,-785.23z"/>
   <path class="fil3" d="M6215.26 13421.93c-183.98,91.9 -302.51,463.75 -302.51,647.37 0,226.42 74.4,457.72 224.92,600.58 -214.35,-365.66 -265.91,-786.59 77.59,-1247.95z"/>
   <path class="fil3" d="M5594.17 14709.24c-231.85,-551.23 -109.13,-1226.17 288.57,-1639.48 189.19,-196.64 372.08,-298.77 394.35,-322.9 -161.72,55.16 -253.02,144.47 -367.56,225.5l-109.08 108.11c-15.83,16.2 -27.98,22.43 -43.76,38.37 -227.96,230.39 -409.31,729.32 -372.91,1121.76 17.53,189.11 50.76,314.9 119.27,475.98 112.1,263.64 305.26,481.16 552.92,624.73 -148.03,-178.16 -337.91,-337.49 -461.8,-632.07z"/>
  </g>
 </g>
</svg>
